<?xml version="1.0" encoding="UTF-8"?>
<svg width="25px" height="25px" viewBox="0 0 25 25" version="1.1" xmlns="http://www.w3.org/2000/svg" xmlns:xlink="http://www.w3.org/1999/xlink">
    <title>Shape</title>
    <g id="Current" stroke="none" stroke-width="1" fill="none" fill-rule="evenodd">
        <g id="about-open" transform="translate(-416.000000, -512.000000)" fill="#C0C0C0" fill-rule="nonzero">
            <g id="np_question_3604649_000000" transform="translate(416.000000, 510.000000)">
                <path d="M12.5,2 C5.583,2 0,7.583 0,14.5 C0,21.417 5.583,27 12.5,27 C19.417,27 25,21.417 25,14.5 C25,7.583 19.417,2 12.5,2 Z M13.72265,22.11125 L11.0839,22.11125 L11.0839,19.36125 L13.72265,19.36125 L13.72265,22.11125 Z M17.0274,12.333 C16.471725,13.083 15.80475,13.777325 15.1104,14.416 C14.58305,14.860325 14.166075,15.38865 13.83305,15.999 C13.610395,16.610325 13.527375,17.249 13.5557,17.887675 L13.5557,18.165025 L11.111375,18.1669782 L11.111375,17.8896282 C11.0840325,17.0283032 11.2227025,16.1669782 11.50005,15.3623782 C11.75005,14.6953782 12.305725,13.9737032 13.16705,13.1397282 L14.028375,12.3067282 C14.25103,12.1123932 14.445375,11.8624032 14.611375,11.6124032 C14.861375,11.2510782 15.00005,10.8067282 15.028375,10.3624032 C15.05572,9.77940325 14.83404,9.19540325 14.4727,8.75107825 C14.11136,8.30675325 13.4727,8.08407825 12.611375,8.08407825 C11.528375,8.08407825 10.778375,8.47275325 10.388725,9.25107825 C10.111375,9.86240325 9.971725,10.5567532 9.971725,11.2237282 L9.971725,11.5010782 L7.50005,11.5001017 L7.50005,11.2227517 C7.50005,9.63975175 7.9727,8.33400175 8.888725,7.36150175 C9.805725,6.38885175 11.055725,5.88885175 12.638725,5.88885175 C14.111375,5.88885175 15.305725,6.30585175 16.194475,7.13885175 C17.08315,7.97185175 17.58315,9.13885175 17.5558,10.3616017 C17.5558,11.0559267 17.3888075,11.7502767 17.027475,12.3332767 L17.0274,12.333 Z" id="Shape"></path>
            </g>
        </g>
    </g>
</svg>